<svg id="Capa_1" enable-background="new 0 0 512 512" height="512" viewBox="0 0 512 512" width="512" xmlns="http://www.w3.org/2000/svg"><path d="m78.496 0c-3.459 0-6.263 2.804-6.263 6.263v499.475c0 3.459 2.804 6.263 6.263 6.263h355.008c3.459 0 6.263-2.804 6.263-6.263v-499.475c0-3.459-2.804-6.263-6.263-6.263z" fill="#f2e7e4"/><path d="m433.504 0h-42.35v413.879c0 27.343-22.166 49.508-49.508 49.508h-269.413v42.35c0 3.459 2.804 6.262 6.262 6.262h355.008c3.459 0 6.263-2.804 6.263-6.263v-499.473c.001-3.459-2.803-6.263-6.262-6.263z" fill="#ded0cb"/><circle cx="256" cy="151.081" fill="#fbcb80" r="98.362"/><path d="m327.262 204.689c0-18.437-14.946-33.383-33.383-33.383h-18.695c10.741-6.501 17.922-18.295 17.922-31.766 0-20.493-16.613-37.106-37.106-37.106s-37.106 16.613-37.106 37.106c0 13.472 7.18 25.265 17.922 31.766h-18.695c-18.437 0-33.383 14.946-33.383 33.383v14.151c17.919 18.84 43.209 30.603 71.262 30.603s53.343-11.763 71.262-30.603z" fill="#c89b58"/><g fill="#e7b467"><path d="m231.872 309.824h-94.181c-4.261 0-7.715-3.454-7.715-7.715s3.454-7.715 7.715-7.715h94.181c4.261 0 7.715 3.454 7.715 7.715s-3.455 7.715-7.715 7.715z"/><path d="m231.872 347.446h-94.181c-4.261 0-7.715-3.454-7.715-7.715s3.454-7.715 7.715-7.715h94.181c4.261 0 7.715 3.454 7.715 7.715-.001 4.261-3.455 7.715-7.715 7.715z"/><path d="m374.309 309.824h-94.181c-4.261 0-7.715-3.454-7.715-7.715s3.454-7.715 7.715-7.715h94.181c4.261 0 7.715 3.454 7.715 7.715s-3.454 7.715-7.715 7.715z"/></g><circle cx="151.828" cy="398.362" fill="#f9c36e" r="20.224"/><circle cx="256.48" cy="398.362" fill="#f9c36e" r="20.224"/><circle cx="360.172" cy="398.362" fill="#f9c36e" r="20.224"/></svg>